# Made in Blockbench 5.1.4
mtllib liquid_blaze_cage.mtl

o cube
v 0.125 0 0.875
v 0.125 0.25 0.875
v 0.125 0.25 0.125
v 0.125 0 0.125
v 0.875 0.25 0.125
v 0.875 0 0.125
v 0.875 0.25 0.875
v 0.875 0 0.875
v 0.9375 0.3125 0.9375
v 0.9375 0.875 0.9375
v 0.0625 0.875 0.9375
v 0.0625 0.3125 0.9375
v 0.0625 0.25 0.875
v 0.9375 0.25 0.875
v 0.9375 0.9375 1
v 0.0625 0.9375 1
v 0.9375 0.3125 0.0625
v 0.9375 0.875 0.0625
v 0.9375 0.875 0.9375
v 0.9375 0.3125 0.9375
v 0.875 0.25 0.9375
v 0.875 0.25 0.0625
v 1 0.9375 0.0625
v 1 0.9375 0.9375
v 0.0625 0.3125 0.0625
v 0.0625 0.875 0.0625
v 0.9375 0.875 0.0625
v 0.9375 0.3125 0.0625
v 0.9375 0.25 0.125
v 0.0625 0.25 0.125
v 0.0625 0.9375 0
v 0.9375 0.9375 0
v 0.0625 0.3125 0.9375
v 0.0625 0.875 0.9375
v 0.0625 0.875 0.0625
v 0.0625 0.3125 0.0625
v 0.125 0.25 0.0625
v 0.125 0.25 0.9375
v 0 0.9375 0.9375
v 0 0.9375 0.0625
v 0.875 0 0.875
v 1 0 1
v 1 0.3125 1
v 0.875 0.3125 0.875
v 0.875 0 0.125
v 1 0 0
v 1 0.3125 0
v 0.875 0.3125 0.125
v 0.125 0 0.125
v 0 0 0
v 0 0.3125 0
v 0.125 0.3125 0.125
v 0.125 0 0.875
v 0 0 1
v 0 0.3125 1
v 0.125 0.3125 0.875
v 0.9375 0.3125 0.9375
v 0.0625 0.3125 0.9375
v 0.0625 0.875 0.9375
v 0.9375 0.875 0.9375
v 0.9375 0.25 0.875
v 0.0625 0.25 0.875
v 0.0625 0.9375 1
v 0.9375 0.9375 1
v 0.9375 0.3125 0.0625
v 0.9375 0.3125 0.9375
v 0.9375 0.875 0.9375
v 0.9375 0.875 0.0625
v 0.875 0.25 0.0625
v 0.875 0.25 0.9375
v 1 0.9375 0.9375
v 1 0.9375 0.0625
v 0.0625 0.3125 0.0625
v 0.9375 0.3125 0.0625
v 0.9375 0.875 0.0625
v 0.0625 0.875 0.0625
v 0.0625 0.25 0.125
v 0.9375 0.25 0.125
v 0.9375 0.9375 0
v 0.0625 0.9375 0
v 0.0625 0.3125 0.9375
v 0.0625 0.3125 0.0625
v 0.0625 0.875 0.0625
v 0.0625 0.875 0.9375
v 0.125 0.25 0.9375
v 0.125 0.25 0.0625
v 0 0.9375 0.0625
v 0 0.9375 0.9375
v 0.875 0 0.875
v 0.875 0.3125 0.875
v 1 0.3125 1
v 1 0 1
v 0.875 0 0.125
v 0.875 0.3125 0.125
v 1 0.3125 0
v 1 0 0
v 0.125 0 0.125
v 0.125 0.3125 0.125
v 0 0.3125 0
v 0 0 0
v 0.125 0 0.875
v 0.125 0.3125 0.875
v 0 0.3125 1
v 0 0 1
v 0.125 0 0.3125
v 0.125 0.125 0.3125
v 0.125 0.125 0.6875
v 0.125 0 0.6875
v 0.875 0 0.6875
v 0.875 0.125 0.6875
v 0.875 0.125 0.3125
v 0.875 0 0.3125
v 0.9375 0 0.6875
v 0.9375 0.125 0.6875
v 0.9375 0.125 0.3125
v 0.9375 0 0.3125
v 0.0625 0.125 0.3125
v 0.0625 0 0.3125
v 0.0625 0.125 0.6875
v 0.0625 0 0.6875
vt 0.9375 0.375
vt 0.9375 0.5
vt 0.5625 0.5
vt 0.5625 0.375
vt 0.9375 0.375
vt 0.9375 0.5
vt 0.5625 0.5
vt 0.5625 0.375
vt 0.5625 0
vt 0.9375 0
vt 0.9375 0.375
vt 0.5625 0.375
vt 0.5625 0.5625
vt 0.9375 0.5625
vt 0.9375 0.9375
vt 0.5625 0.9375
vt 0.46875 0.53125
vt 0.46875 0.8125
vt 0.03125 0.8125
vt 0.03125 0.53125
vt 0.03125 0.5
vt 0.46875 0.5
vt 0.46875 0.53125
vt 0.03125 0.53125
vt 0.03125 0.8125
vt 0.46875 0.8125
vt 0.46875 0.84375
vt 0.03125 0.84375
vt 0.46875 0.53125
vt 0.46875 0.8125
vt 0.03125 0.8125
vt 0.03125 0.53125
vt 0.03125 0.5
vt 0.46875 0.5
vt 0.46875 0.53125
vt 0.03125 0.53125
vt 0.03125 0.8125
vt 0.46875 0.8125
vt 0.46875 0.84375
vt 0.03125 0.84375
vt 0.46875 0.53125
vt 0.46875 0.8125
vt 0.03125 0.8125
vt 0.03125 0.53125
vt 0.03125 0.5
vt 0.46875 0.5
vt 0.46875 0.53125
vt 0.03125 0.53125
vt 0.03125 0.8125
vt 0.46875 0.8125
vt 0.46875 0.84375
vt 0.03125 0.84375
vt 0.46875 0.53125
vt 0.46875 0.8125
vt 0.03125 0.8125
vt 0.03125 0.53125
vt 0.03125 0.5
vt 0.46875 0.5
vt 0.46875 0.53125
vt 0.03125 0.53125
vt 0.03125 0.8125
vt 0.46875 0.8125
vt 0.46875 0.84375
vt 0.03125 0.84375
vt 0.90625 0.34375
vt 1 0.34375
vt 1 0.5
vt 0.90625 0.5
vt 0.90625 0.34375
vt 1 0.34375
vt 1 0.5
vt 0.90625 0.5
vt 0.90625 0.34375
vt 1 0.34375
vt 1 0.5
vt 0.90625 0.5
vt 0.90625 0.34375
vt 1 0.34375
vt 1 0.5
vt 0.90625 0.5
vt 0.46875 0.53125
vt 0.03125 0.53125
vt 0.03125 0.8125
vt 0.46875 0.8125
vt 0.03125 0.5
vt 0.03125 0.53125
vt 0.46875 0.53125
vt 0.46875 0.5
vt 0.03125 0.8125
vt 0.03125 0.84375
vt 0.46875 0.84375
vt 0.46875 0.8125
vt 0.46875 0.53125
vt 0.03125 0.53125
vt 0.03125 0.8125
vt 0.46875 0.8125
vt 0.03125 0.5
vt 0.03125 0.53125
vt 0.46875 0.53125
vt 0.46875 0.5
vt 0.03125 0.8125
vt 0.03125 0.84375
vt 0.46875 0.84375
vt 0.46875 0.8125
vt 0.46875 0.53125
vt 0.03125 0.53125
vt 0.03125 0.8125
vt 0.46875 0.8125
vt 0.03125 0.5
vt 0.03125 0.53125
vt 0.46875 0.53125
vt 0.46875 0.5
vt 0.03125 0.8125
vt 0.03125 0.84375
vt 0.46875 0.84375
vt 0.46875 0.8125
vt 0.46875 0.53125
vt 0.03125 0.53125
vt 0.03125 0.8125
vt 0.46875 0.8125
vt 0.03125 0.5
vt 0.03125 0.53125
vt 0.46875 0.53125
vt 0.46875 0.5
vt 0.03125 0.8125
vt 0.03125 0.84375
vt 0.46875 0.84375
vt 0.46875 0.8125
vt 0.90625 0.34375
vt 0.90625 0.5
vt 1 0.5
vt 1 0.34375
vt 0.90625 0.34375
vt 0.90625 0.5
vt 1 0.5
vt 1 0.34375
vt 0.90625 0.34375
vt 0.90625 0.5
vt 1 0.5
vt 1 0.34375
vt 0.90625 0.34375
vt 0.90625 0.5
vt 1 0.5
vt 1 0.34375
vt 0.9375 0.375
vt 0.9375 0.5
vt 0.84375 0.4375
vt 0.84375 0.375
vt 0.9375 0.5
vt 0.5625 0.5
vt 0.65625 0.4375
vt 0.84375 0.4375
vt 0.65625 0.4375
vt 0.5625 0.5
vt 0.5625 0.375
vt 0.65625 0.375
vt 0.46875 0.28125
vt 0.46875 0.09375
vt 0.53125 0.09375
vt 0.53125 0.28125
vt 0.9375 0.375
vt 0.9375 0.5
vt 0.84375 0.4375
vt 0.84375 0.375
vt 0.9375 0.5
vt 0.5625 0.5
vt 0.65625 0.4375
vt 0.84375 0.4375
vt 0.65625 0.4375
vt 0.5625 0.5
vt 0.5625 0.375
vt 0.65625 0.375
vt 0.46875 0.28125
vt 0.46875 0.09375
vt 0.53125 0.09375
vt 0.53125 0.28125
vt 0.46875 0.09375
vt 0.46875 0.28125
vt 0.4375 0.28125
vt 0.4375 0.09375
vt 0.53125 0.09375
vt 0.46875 0.09375
vt 0.46875 0.0625
vt 0.53125 0.0625
vt 0.96875 0.09375
vt 0.96875 0.28125
vt 0.9375 0.28125
vt 0.9375 0.09375
vt 0.46875 0.28125
vt 0.53125 0.28125
vt 0.53125 0.3125
vt 0.46875 0.3125
vt 0.53125 0.0625
vt 0.53125 0.09375
vt 0.46875 0.09375
vt 0.46875 0.0625
vt 0.4375 0.09375
vt 0.46875 0.09375
vt 0.46875 0.28125
vt 0.4375 0.28125
vt 0.46875 0.3125
vt 0.46875 0.28125
vt 0.53125 0.28125
vt 0.53125 0.3125
vt 0.4375 0.28125
vt 0.4375 0.09375
vt 0.46875 0.09375
vt 0.46875 0.28125
vt 0.53125 0.09375
vt 0.46875 0.09375
vt 0.46875 0.0625
vt 0.53125 0.0625
vt 0.53125 0.28125
vt 0.53125 0.09375
vt 0.5625 0.09375
vt 0.5625 0.28125
vt 0.46875 0.28125
vt 0.53125 0.28125
vt 0.53125 0.3125
vt 0.46875 0.3125
vn 0 0 -1
vn 0 0 1
vn 0 -1 0
vn 0 1 0
vn 0 0 1
vn 0 -0.7071067811865476 0.7071067811865476
vn 0 -0.7071067811865476 0.7071067811865476
vn 1 0 0
vn 0.7071067811865476 -0.7071067811865476 0
vn 0.7071067811865476 -0.7071067811865476 0
vn 0 0 -1
vn 0 -0.7071067811865476 -0.7071067811865476
vn 0 -0.7071067811865476 -0.7071067811865476
vn -1 0 0
vn -0.7071067811865476 -0.7071067811865476 0
vn -0.7071067811865476 -0.7071067811865476 0
vn -0.7071067811865476 0 0.7071067811865476
vn 0.7071067811865476 0 0.7071067811865476
vn 0.7071067811865476 0 -0.7071067811865476
vn -0.7071067811865476 0 -0.7071067811865476
vn 0 0 -1
vn 0 0.7071067811865476 -0.7071067811865476
vn 0 0.7071067811865476 -0.7071067811865476
vn -1 0 0
vn -0.7071067811865476 0.7071067811865476 0
vn -0.7071067811865476 0.7071067811865476 0
vn 0 0 1
vn 0 0.7071067811865476 0.7071067811865476
vn 0 0.7071067811865476 0.7071067811865476
vn 1 0 0
vn 0.7071067811865476 0.7071067811865476 0
vn 0.7071067811865476 0.7071067811865476 0
vn 0.7071067811865476 0 -0.7071067811865476
vn -0.7071067811865476 0 -0.7071067811865476
vn -0.7071067811865476 0 0.7071067811865476
vn 0.7071067811865476 0 0.7071067811865476
vn -1 0 0
vn -1 0 0
vn -1 0 0
vn -1 0 0
vn 1 0 0
vn 1 0 0
vn 1 0 0
vn 1 0 0
vn 0 1 0
vn 0 0 1
vn 0 -1 0
vn 0 0 -1
vn 0 0 1
vn 0 1 0
vn 0 0 -1
vn 0 1 0
vn 0 0 -1
vn 0 -1 0
vn 0 0 1
usemtl m_0743a24e-8bbd-39c3-d16f-1cacd6588c2e
f 4/1/1 3/2/1 5/3/1 6/4/1
f 8/5/2 7/6/2 2/7/2 1/8/2
f 4/9/3 6/10/3 8/11/3 1/12/3
f 5/13/4 3/14/4 2/15/4 7/16/4
f 9/17/5 10/18/5 11/19/5 12/20/5
f 9/21/6 12/22/6 13/23/6 14/24/6
f 11/25/7 10/26/7 15/27/7 16/28/7
f 17/29/8 18/30/8 19/31/8 20/32/8
f 17/33/9 20/34/9 21/35/9 22/36/9
f 19/37/10 18/38/10 23/39/10 24/40/10
f 25/41/11 26/42/11 27/43/11 28/44/11
f 25/45/12 28/46/12 29/47/12 30/48/12
f 27/49/13 26/50/13 31/51/13 32/52/13
f 33/53/14 34/54/14 35/55/14 36/56/14
f 33/57/15 36/58/15 37/59/15 38/60/15
f 35/61/16 34/62/16 39/63/16 40/64/16
f 41/65/17 42/66/17 43/67/17 44/68/17
f 45/69/18 46/70/18 47/71/18 48/72/18
f 49/73/19 50/74/19 51/75/19 52/76/19
f 53/77/20 54/78/20 55/79/20 56/80/20
f 57/81/21 58/82/21 59/83/21 60/84/21
f 57/85/22 61/86/22 62/87/22 58/88/22
f 59/89/23 63/90/23 64/91/23 60/92/23
f 65/93/24 66/94/24 67/95/24 68/96/24
f 65/97/25 69/98/25 70/99/25 66/100/25
f 67/101/26 71/102/26 72/103/26 68/104/26
f 73/105/27 74/106/27 75/107/27 76/108/27
f 73/109/28 77/110/28 78/111/28 74/112/28
f 75/113/29 79/114/29 80/115/29 76/116/29
f 81/117/30 82/118/30 83/119/30 84/120/30
f 81/121/31 85/122/31 86/123/31 82/124/31
f 83/125/32 87/126/32 88/127/32 84/128/32
f 89/129/33 90/130/33 91/131/33 92/132/33
f 93/133/34 94/134/34 95/135/34 96/136/34
f 97/137/35 98/138/35 99/139/35 100/140/35
f 101/141/36 102/142/36 103/143/36 104/144/36
f 1/145/37 2/146/37 107/147/37 108/148/37
f 2/149/38 3/150/38 106/151/38 107/152/38
f 106/153/39 3/154/39 4/155/39 105/156/39
f 119/157/40 117/158/40 118/159/40 120/160/40
f 6/161/41 5/162/41 111/163/41 112/164/41
f 5/165/42 7/166/42 110/167/42 111/168/42
f 110/169/43 7/170/43 8/171/43 109/172/43
f 115/173/44 114/174/44 113/175/44 116/176/44
f 114/177/45 115/178/45 111/179/45 110/180/45
f 113/181/46 114/182/46 110/183/46 109/184/46
f 116/185/47 113/186/47 109/187/47 112/188/47
f 115/189/48 116/190/48 112/191/48 111/192/48
f 109/193/49 113/194/49 114/195/49 110/196/49
f 110/197/50 114/198/50 115/199/50 111/200/50
f 111/201/51 115/202/51 116/203/51 112/204/51
f 117/205/52 119/206/52 107/207/52 106/208/52
f 118/209/53 117/210/53 106/211/53 105/212/53
f 120/213/54 118/214/54 105/215/54 108/216/54
f 119/217/55 120/218/55 108/219/55 107/220/55